<svg width="28" height="28" viewBox="0 0 28 28" fill="none" xmlns="http://www.w3.org/2000/svg">
<g clip-path="url(#clip0_245_6094)">
<path d="M23.8647 4.13546L26.7977 4.72171C26.9552 4.75321 27.0848 4.86871 27.1303 5.02446C27.1532 5.10012 27.1553 5.18059 27.1362 5.25732C27.1171 5.33404 27.0775 5.40416 27.0217 5.46021L24.619 7.86471C24.3311 8.151 23.9418 8.31201 23.5358 8.31271H21.5425L16.5375 13.3195C16.633 13.68 16.6505 14.0567 16.589 14.4246C16.5275 14.7925 16.3883 15.143 16.1806 15.4528C15.973 15.7626 15.7017 16.0247 15.3849 16.2214C15.0681 16.4182 14.7129 16.5452 14.3432 16.594C13.9734 16.6427 13.5975 16.6121 13.2405 16.5042C12.8834 16.3963 12.5535 16.2136 12.2727 15.9681C11.9918 15.7227 11.7665 15.4203 11.6117 15.0809C11.4569 14.7416 11.3762 14.3732 11.375 14.0002C11.3749 13.5974 11.4675 13.2 11.6457 12.8387C11.8238 12.4774 12.0827 12.162 12.4023 11.9168C12.7219 11.6717 13.0937 11.5034 13.4888 11.4249C13.8839 11.3465 14.2917 11.36 14.6807 11.4645L19.6875 6.45596V4.46621C19.6875 4.06021 19.8485 3.66996 20.1355 3.38296L22.54 0.978458C22.596 0.922684 22.6662 0.883142 22.7429 0.864037C22.8196 0.844932 22.9001 0.846978 22.9757 0.869958C23.1315 0.915458 23.247 1.04496 23.2785 1.20246L23.8647 4.13546Z" fill="#4A9E63"/>
<path d="M3.50021 13.9999C3.50201 15.5013 3.82578 16.9849 4.4497 18.3506C5.07362 19.7162 5.98316 20.9322 7.11698 21.9165C8.2508 22.9007 9.58251 23.6304 11.0223 24.0562C12.4621 24.482 13.9764 24.5941 15.4632 24.3849C16.95 24.1757 18.3746 23.6501 19.641 22.8435C20.9074 22.0369 21.986 20.968 22.8042 19.7091C23.6224 18.4502 24.1611 17.0305 24.3839 15.5457C24.6068 14.0609 24.5086 12.5455 24.096 11.1019C24.038 10.9332 24.015 10.7545 24.0284 10.5767C24.0417 10.3989 24.0911 10.2256 24.1735 10.0675C24.2559 9.90936 24.3697 9.76965 24.5078 9.65688C24.646 9.54411 24.8056 9.46063 24.9771 9.41153C25.1485 9.36243 25.3281 9.34873 25.505 9.37127C25.6819 9.39381 25.8524 9.45211 26.0061 9.54263C26.1597 9.63316 26.2933 9.754 26.3988 9.89781C26.5042 10.0416 26.5793 10.2054 26.6195 10.3791C27.4184 13.1748 27.2666 16.1566 26.188 18.8567C25.1094 21.5568 23.1649 23.8225 20.6597 25.2983C18.1544 26.774 15.2302 27.3764 12.3457 27.0108C9.46116 26.6452 6.7796 25.3324 4.72171 23.2784C2.66606 21.221 1.35187 18.5392 0.985465 15.654C0.619065 12.7688 1.22121 9.84367 2.69735 7.33777C4.17349 4.83187 6.44004 2.88715 9.14115 1.80894C11.8423 0.730727 14.825 0.580077 17.621 1.38064C17.9539 1.47796 18.2347 1.70311 18.4022 2.00689C18.5696 2.31066 18.61 2.66835 18.5145 3.0018C18.419 3.33525 18.1954 3.61734 17.8925 3.78642C17.5896 3.9555 17.2322 3.99783 16.8982 3.90414C15.3347 3.45518 13.6883 3.37562 12.0888 3.67175C10.4893 3.96787 8.98044 4.63158 7.6813 5.61052C6.38215 6.58946 5.32822 7.85685 4.60264 9.31275C3.87705 10.7686 3.49965 12.3732 3.50021 13.9999Z" fill="#4A9E63"/>
<path d="M8.75084 14C8.75094 14.9566 9.0122 15.8949 9.50642 16.7139C10.0007 17.5328 10.7091 18.2013 11.5553 18.6472C12.4016 19.0931 13.3535 19.2995 14.3084 19.2442C15.2634 19.1888 16.1851 18.8738 16.9741 18.333C17.763 17.791 18.3887 17.0435 18.7835 16.1715C19.1783 15.2996 19.3272 14.3363 19.2141 13.3858C19.1835 13.1551 19.2149 12.9205 19.3052 12.706C19.3954 12.4916 19.5412 12.3051 19.7274 12.1657C19.9137 12.0263 20.1338 11.939 20.365 11.9129C20.5962 11.8869 20.8302 11.9229 21.0428 12.0173C21.2554 12.1105 21.4395 12.2584 21.5763 12.4459C21.7132 12.6334 21.7978 12.8539 21.8216 13.0848C22.0117 14.709 21.6916 16.352 20.9055 17.786C20.1194 19.2199 18.9064 20.3736 17.4349 21.0869C15.9634 21.8002 14.3064 22.0377 12.6938 21.7664C11.0811 21.4952 9.59296 20.7286 8.43577 19.5732C7.27858 18.4178 6.50979 16.9307 6.23609 15.3185C5.9624 13.7063 6.19737 12.0489 6.90841 10.5763C7.61945 9.10374 8.77128 7.88902 10.204 7.10078C11.6368 6.31253 13.2794 5.98985 14.9038 6.17754C15.0778 6.19367 15.2467 6.24437 15.4008 6.32666C15.5549 6.40895 15.6911 6.52117 15.8012 6.65675C15.9114 6.79232 15.9934 6.94853 16.0424 7.1162C16.0914 7.28387 16.1064 7.45964 16.0866 7.6332C16.0668 7.80677 16.0126 7.97463 15.927 8.12696C15.8415 8.27928 15.7265 8.413 15.5886 8.52028C15.4507 8.62755 15.2928 8.70623 15.1242 8.75169C14.9555 8.79716 14.7794 8.80849 14.6063 8.78504C13.8707 8.69963 13.1254 8.7708 12.4193 8.9939C11.7131 9.21699 11.0622 9.58694 10.5091 10.0795C9.95613 10.572 9.51357 11.1759 9.21053 11.8516C8.90749 12.5273 8.75083 13.2595 8.75084 14Z" fill="#4A9E63"/>
</g>
<defs>
<clipPath id="clip0_245_6094">
<rect width="28" height="28" fill="white"/>
</clipPath>
</defs>
</svg>
