<svg width="20" height="20" viewBox="0 0 20 20" fill="none" xmlns="http://www.w3.org/2000/svg">
<path d="M10.742 4.90039H4.25866C2.83366 4.90039 1.66699 6.06706 1.66699 7.49206V16.9587C1.66699 18.1671 2.53366 18.6837 3.59199 18.0921L6.86699 16.2671C7.21699 16.0754 7.78366 16.0754 8.12533 16.2671L11.4003 18.0921C12.467 18.6754 13.3337 18.1671 13.3337 16.9587V7.49206C13.3337 6.06706 12.167 4.90039 10.742 4.90039Z" fill="#151514"/>
<path d="M18.3329 4.25768V13.7243C18.3329 14.9327 17.4662 15.441 16.4079 14.8577L14.7995 13.9577C14.6662 13.8827 14.5829 13.741 14.5829 13.591V7.49102C14.5829 5.37435 12.8579 3.64935 10.7412 3.64935H7.34954C7.04121 3.64935 6.82454 3.32435 6.96621 3.05768C7.39954 2.23268 8.26621 1.66602 9.25788 1.66602H15.7412C17.1662 1.66602 18.3329 2.83268 18.3329 4.25768Z" fill="#151514"/>
</svg>
