<svg width="24" height="24" viewBox="0 0 24 24" fill="none" xmlns="http://www.w3.org/2000/svg">
<circle cx="12" cy="12" r="12" fill="#FF3B30"/>
<path d="M6.96068 6.9597C7.14818 6.77244 7.40235 6.66725 7.66735 6.66725C7.93235 6.66725 8.18651 6.77244 8.37401 6.9597L12.0007 10.585L15.6273 6.9597C15.7201 6.8669 15.8303 6.79329 15.9516 6.74307C16.0728 6.69284 16.2028 6.66699 16.334 6.66699C16.4653 6.66699 16.5952 6.69284 16.7165 6.74307C16.8377 6.79329 16.9479 6.8669 17.0407 6.9597C17.1335 7.0525 17.2071 7.16267 17.2573 7.28392C17.3075 7.40517 17.3334 7.53513 17.3334 7.66637C17.3334 7.79761 17.3075 7.92757 17.2573 8.04882C17.2071 8.17007 17.1335 8.28024 17.0407 8.37304L13.4153 11.9997L17.0407 15.6264C17.2281 15.8138 17.3334 16.068 17.3334 16.333C17.3334 16.5981 17.2281 16.8523 17.0407 17.0397C16.8533 17.2271 16.5991 17.3324 16.334 17.3324C16.069 17.3324 15.8148 17.2271 15.6273 17.0397L12.0007 13.4144L8.37401 17.0397C8.18659 17.2271 7.9324 17.3324 7.66735 17.3324C7.40229 17.3324 7.1481 17.2271 6.96068 17.0397C6.77326 16.8523 6.66797 16.5981 6.66797 16.333C6.66797 16.068 6.77326 15.8138 6.96068 15.6264L10.586 11.9997L6.96068 8.37304C6.77341 8.18554 6.66823 7.93137 6.66823 7.66637C6.66823 7.40137 6.77341 7.1472 6.96068 6.9597Z" fill="white"/>
</svg>
