<svg width="12" height="10" viewBox="0 0 12 10" fill="none" xmlns="http://www.w3.org/2000/svg">
<path fill-rule="evenodd" clip-rule="evenodd" d="M2.60297 6.8132C2.60297 6.89101 2.58764 6.96806 2.55787 7.03994C2.52809 7.11183 2.48445 7.17715 2.42943 7.23216C2.37441 7.28718 2.30909 7.33083 2.23721 7.3606C2.16532 7.39038 2.08828 7.4057 2.01047 7.4057C1.93266 7.4057 1.85561 7.39038 1.78373 7.3606C1.71184 7.33083 1.64653 7.28718 1.59151 7.23216C1.53649 7.17715 1.49285 7.11183 1.46307 7.03994C1.43329 6.96806 1.41797 6.89101 1.41797 6.8132C1.41797 6.65606 1.48039 6.50536 1.59151 6.39424C1.70262 6.28313 1.85333 6.2207 2.01047 6.2207C2.16761 6.2207 2.31831 6.28313 2.42943 6.39424C2.54054 6.50536 2.60297 6.65606 2.60297 6.8132ZM10.5755 6.8132C10.5755 6.97034 10.513 7.12105 10.4019 7.23216C10.2908 7.34328 10.1401 7.4057 9.98297 7.4057C9.82583 7.4057 9.67512 7.34328 9.56401 7.23216C9.45289 7.12105 9.39047 6.97034 9.39047 6.8132C9.39047 6.65606 9.45289 6.50536 9.56401 6.39424C9.67512 6.28313 9.82583 6.2207 9.98297 6.2207C10.1401 6.2207 10.2908 6.28313 10.4019 6.39424C10.513 6.50536 10.5755 6.65606 10.5755 6.8132Z" fill="#00A6ED"/>
<path fill-rule="evenodd" clip-rule="evenodd" d="M3.84125 2.97625L5.03375 4.5775L2.5625 4.8625L3.3575 3.02875C3.16625 2.95375 3.03125 2.76625 3.03125 2.54875C3.03125 2.26375 3.26375 2.03125 3.54875 2.03125C3.65904 2.03183 3.76628 2.06756 3.85488 2.13325C3.94348 2.19894 4.00883 2.29116 4.04144 2.39652C4.07405 2.50188 4.07222 2.6149 4.03622 2.71915C4.00022 2.8234 3.93193 2.91346 3.84125 2.97625ZM8.62625 3.02875L9.42125 4.8625L6.95 4.5775L8.1425 2.97625C8.0075 2.8825 7.9175 2.725 7.9175 2.54875C7.9175 2.26375 8.15 2.03125 8.435 2.03125C8.72 2.03125 8.9525 2.26375 8.9525 2.54875C8.9525 2.76625 8.8175 2.95375 8.62625 3.02875Z" fill="#E19747"/>
<path d="M11.2425 2.90921C11.2425 2.62421 11.01 2.39171 10.725 2.39171C10.44 2.39171 10.2075 2.62421 10.2075 2.90921C10.2075 3.01421 10.2413 3.11546 10.2938 3.19421C10.2113 3.19421 10.1288 3.21296 10.05 3.26546L8.57625 4.21796C8.38125 4.34171 8.12625 4.29671 7.9875 4.10921L6.34875 1.88546C6.33704 1.86759 6.32318 1.85122 6.3075 1.83671C6.43294 1.76765 6.53185 1.65884 6.58866 1.5274C6.64547 1.39595 6.65695 1.24935 6.6213 1.11067C6.58565 0.971982 6.50489 0.849094 6.39173 0.761346C6.27857 0.673599 6.13944 0.625977 5.99625 0.625977C5.85306 0.625977 5.71393 0.673599 5.60077 0.761346C5.48761 0.849094 5.40685 0.971982 5.3712 1.11067C5.33555 1.24935 5.34703 1.39595 5.40384 1.5274C5.46065 1.65884 5.55956 1.76765 5.685 1.83671C5.67 1.85171 5.655 1.86671 5.64375 1.88546L4.005 4.10921C3.87 4.29671 3.61125 4.34171 3.41625 4.21796L1.9425 3.26546C1.86375 3.21296 1.78125 3.19421 1.69875 3.19421C1.755 3.11171 1.785 3.01421 1.785 2.90921C1.785 2.62421 1.5525 2.39171 1.2675 2.39171C0.9825 2.39171 0.75 2.62421 0.75 2.90921C0.75 3.19421 0.9825 3.42671 1.2675 3.42671C1.28625 3.42671 1.305 3.42671 1.32 3.42296C1.27125 3.50921 1.2525 3.61046 1.275 3.71921L2.25 8.58296C2.32125 8.93171 2.62875 9.18296 2.985 9.18296H9.0075C9.36375 9.18296 9.67125 8.93171 9.7425 8.58296L10.7175 3.71921C10.74 3.61046 10.7175 3.50546 10.6725 3.42296C10.6913 3.42296 10.71 3.42671 10.725 3.42671C11.01 3.42671 11.2425 3.19421 11.2425 2.90921Z" fill="#FFB02E"/>
<path d="M5.99609 7.75C6.24473 7.75 6.48319 7.65123 6.65901 7.47541C6.83482 7.2996 6.93359 7.06114 6.93359 6.8125C6.93359 6.56386 6.83482 6.3254 6.65901 6.14959C6.48319 5.97377 6.24473 5.875 5.99609 5.875C5.74745 5.875 5.509 5.97377 5.33318 6.14959C5.15737 6.3254 5.05859 6.56386 5.05859 6.8125C5.05859 7.06114 5.15737 7.2996 5.33318 7.47541C5.509 7.65123 5.74745 7.75 5.99609 7.75Z" fill="#00A6ED"/>
<path fill-rule="evenodd" clip-rule="evenodd" d="M4.125 6.8125C4.125 6.96168 4.06574 7.10476 3.96025 7.21025C3.85476 7.31574 3.71168 7.375 3.5625 7.375C3.41332 7.375 3.27024 7.31574 3.16475 7.21025C3.05926 7.10476 3 6.96168 3 6.8125C3 6.66332 3.05926 6.52024 3.16475 6.41475C3.27024 6.30926 3.41332 6.25 3.5625 6.25C3.71168 6.25 3.85476 6.30926 3.96025 6.41475C4.06574 6.52024 4.125 6.66332 4.125 6.8125ZM9 6.8125C9 6.96168 8.94074 7.10476 8.83525 7.21025C8.72976 7.31574 8.58668 7.375 8.4375 7.375C8.28832 7.375 8.14524 7.31574 8.03975 7.21025C7.93426 7.10476 7.875 6.96168 7.875 6.8125C7.875 6.66332 7.93426 6.52024 8.03975 6.41475C8.14524 6.30926 8.28832 6.25 8.4375 6.25C8.58668 6.25 8.72976 6.30926 8.83525 6.41475C8.94074 6.52024 9 6.66332 9 6.8125Z" fill="#F8312F"/>
</svg>
