<svg width="16" height="16" viewBox="0 0 16 16" fill="none" xmlns="http://www.w3.org/2000/svg">
<path d="M6.25031 13.6001C6.27157 13.6191 6.29843 13.6305 6.32681 13.6328C6.35519 13.6351 6.38353 13.628 6.40753 13.6127C6.43152 13.5974 6.44986 13.5746 6.45975 13.5479C6.46964 13.5212 6.47054 13.4921 6.46231 13.4648L4.78231 7.70613C4.76716 7.65368 4.73628 7.60715 4.69383 7.57281C4.65139 7.53847 4.59943 7.51799 4.54498 7.51413C4.27298 7.49413 4.00142 7.47191 3.73031 7.44746L1.48364 7.2428C1.45989 7.24049 1.43596 7.24466 1.41439 7.25487C1.39282 7.26508 1.37442 7.28095 1.36115 7.30078C1.34788 7.32062 1.34024 7.34368 1.33904 7.36751C1.33783 7.39134 1.34311 7.41506 1.35431 7.43613C2.56964 9.70946 4.31964 11.8761 6.25031 13.6001ZM7.89831 14.8175C7.91164 14.8641 7.95164 14.8988 8.00031 14.8988C8.02391 14.8984 8.04673 14.8903 8.06519 14.8755C8.08365 14.8608 8.0967 14.8404 8.10231 14.8175L10.1583 7.7688C10.1644 7.74833 10.1655 7.7267 10.1615 7.70572C10.1576 7.68473 10.1486 7.66502 10.1354 7.64822C10.1222 7.63143 10.1051 7.61806 10.0857 7.60922C10.0663 7.60039 10.045 7.59636 10.0236 7.59746C8.67537 7.65515 7.32525 7.65515 5.97698 7.59746C5.95572 7.59639 5.93452 7.60042 5.91514 7.60922C5.89576 7.61802 5.87877 7.63133 5.86559 7.64804C5.8524 7.66474 5.84341 7.68436 5.83936 7.70526C5.83531 7.72615 5.83632 7.74771 5.84231 7.76813L7.89831 14.8175ZM9.53831 13.4648C9.50098 13.5915 9.65164 13.6881 9.75031 13.6001C11.681 11.8755 13.431 9.70946 14.6463 7.43613C14.6575 7.41511 14.6627 7.39147 14.6616 7.3677C14.6604 7.34393 14.6528 7.32092 14.6396 7.30111C14.6264 7.2813 14.6081 7.26542 14.5867 7.25516C14.5652 7.24489 14.5413 7.24062 14.5176 7.2428L12.271 7.44746C11.999 7.47191 11.7272 7.49413 11.4556 7.51413C11.4012 7.51799 11.3492 7.53847 11.3068 7.57281C11.2643 7.60715 11.2335 7.65368 11.2183 7.70613L9.53831 13.4648ZM14.5343 6.23746C14.5576 6.23542 14.5799 6.22732 14.599 6.21395C14.6181 6.20059 14.6334 6.18244 14.6433 6.16132C14.6533 6.1402 14.6575 6.11684 14.6555 6.09359C14.6536 6.07033 14.6456 6.04799 14.6323 6.0288L12.4736 2.8988C12.3816 2.7655 12.2587 2.65654 12.1152 2.58129C11.9718 2.50604 11.8123 2.46675 11.6503 2.4668H9.99031C9.96842 2.4668 9.94686 2.47219 9.92754 2.4825C9.90823 2.4928 9.89174 2.50771 9.87955 2.52589C9.86736 2.54408 9.85984 2.56499 9.85765 2.58677C9.85545 2.60856 9.85866 2.63055 9.86698 2.6508L11.3716 6.3328C11.393 6.38488 11.4303 6.42886 11.4782 6.45844C11.5261 6.48802 11.5822 6.50168 11.6383 6.49746C11.8188 6.48369 11.9994 6.46813 12.1803 6.4508L14.5343 6.23746ZM8.77698 2.6308C8.75668 2.58214 8.72241 2.54059 8.67851 2.5114C8.6346 2.48221 8.58303 2.46669 8.53031 2.4668H7.47031C7.41759 2.46669 7.36601 2.48221 7.32211 2.5114C7.27821 2.54059 7.24394 2.58214 7.22364 2.6308L5.65164 6.4028C5.6435 6.42254 5.64022 6.44394 5.64208 6.46521C5.64393 6.48648 5.65087 6.50699 5.6623 6.52503C5.67373 6.54306 5.68933 6.55808 5.70778 6.56883C5.72623 6.57958 5.74698 6.58574 5.76831 6.5868C7.25498 6.6588 8.74564 6.6588 10.233 6.5868C10.2542 6.58564 10.2749 6.5794 10.2933 6.56861C10.3116 6.55782 10.3272 6.54278 10.3385 6.52477C10.3499 6.50675 10.3568 6.48627 10.3586 6.46505C10.3604 6.44383 10.3571 6.42249 10.349 6.4028L8.77698 2.6308ZM6.13364 2.6508C6.14196 2.63055 6.14517 2.60856 6.14297 2.58677C6.14078 2.56499 6.13326 2.54408 6.12107 2.52589C6.10887 2.50771 6.09239 2.4928 6.07308 2.4825C6.05376 2.47219 6.0322 2.4668 6.01031 2.4668H4.35031C4.18835 2.46675 4.0288 2.50604 3.88538 2.58129C3.74196 2.65654 3.61897 2.7655 3.52698 2.8988L1.36831 6.0288C1.35503 6.04799 1.34703 6.07033 1.3451 6.09359C1.34316 6.11684 1.34736 6.1402 1.35728 6.16132C1.3672 6.18244 1.38249 6.20059 1.40163 6.21395C1.42076 6.22732 1.44306 6.23542 1.46631 6.23746L3.82031 6.4508C4.00075 6.46813 4.18142 6.48369 4.36231 6.49746C4.41845 6.50168 4.47448 6.48802 4.52239 6.45844C4.57029 6.42886 4.6076 6.38488 4.62898 6.3328L6.13364 2.6508Z" fill="white"/>
</svg>
