<svg width="18" height="18" viewBox="0 0 18 18" fill="none" xmlns="http://www.w3.org/2000/svg">
<path d="M0.25 9C0.25 10.7306 0.763179 12.4223 1.72464 13.8612C2.6861 15.3002 4.05267 16.4217 5.65152 17.0839C7.25037 17.7462 9.00971 17.9195 10.707 17.5819C12.4044 17.2442 13.9635 16.4109 15.1872 15.1872C16.4109 13.9635 17.2442 12.4044 17.5819 10.707C17.9195 9.00971 17.7462 7.25037 17.0839 5.65152C16.4217 4.05267 15.3002 2.6861 13.8612 1.72464C12.4223 0.763179 10.7306 0.25 9 0.25C6.67936 0.25 4.45376 1.17187 2.81282 2.81282C1.17187 4.45376 0.25 6.67936 0.25 9ZM14.7188 13.8438L4.15625 3.28125C5.59415 2.08437 7.42745 1.46811 9.29636 1.55341C11.1653 1.63872 12.9348 2.41942 14.2577 3.74231C15.5806 5.0652 16.3613 6.83474 16.4466 8.70364C16.5319 10.5725 15.9156 12.4059 14.7188 13.8438ZM4.15 14.725C2.63645 13.4397 1.69438 11.6066 1.53035 9.62775C1.36632 7.64888 1.99373 5.68572 3.275 4.16875L13.8312 14.725C12.4776 15.8688 10.7628 16.4963 8.99062 16.4963C7.21849 16.4963 5.50361 15.8688 4.15 14.725Z" fill="#F04438"/>
</svg>
