<svg width="20" height="20" viewBox="0 0 20 20" fill="none" xmlns="http://www.w3.org/2000/svg">
<path d="M16.5835 4.5835C15.6669 3.77794 14.646 3.15988 13.521 2.72933C12.396 2.29877 11.2224 2.0835 10.0002 2.0835C8.52798 2.0835 7.20854 2.35794 6.04187 2.90683C4.87521 3.45572 3.97937 4.20905 3.35437 5.16683C3.24326 5.36127 3.10076 5.521 2.92687 5.646C2.75298 5.771 2.55521 5.8335 2.33354 5.8335C2.16687 5.8335 2.03854 5.76072 1.94854 5.61516C1.85854 5.46961 1.84798 5.31322 1.91687 5.146C2.50021 3.85433 3.52798 2.81266 5.00021 2.021C6.47243 1.22933 8.13909 0.833496 10.0002 0.833496C11.3058 0.833496 12.5627 1.04877 13.771 1.47933C14.9794 1.90988 16.0835 2.53489 17.0835 3.35433V2.29183C17.0835 2.11127 17.1427 1.96211 17.261 1.84433C17.3794 1.72655 17.5285 1.66738 17.7085 1.66683C17.8885 1.66627 18.038 1.72544 18.1569 1.84433C18.2758 1.96322 18.3346 2.11238 18.3335 2.29183V5.00016C18.3335 5.23627 18.2535 5.43433 18.0935 5.59433C17.9335 5.75433 17.7358 5.83405 17.5002 5.8335H14.7919C14.6113 5.8335 14.4621 5.77433 14.3444 5.656C14.2266 5.53766 14.1674 5.3885 14.1669 5.2085C14.1663 5.0285 14.2255 4.87933 14.3444 4.761C14.4633 4.64266 14.6124 4.5835 14.7919 4.5835H16.5835ZM9.85437 18.3335C9.52104 18.3335 9.20159 18.271 8.89604 18.146C8.59048 18.021 8.31965 17.8404 8.08354 17.6043L4.41687 13.9168C4.26409 13.7641 4.18437 13.5732 4.17771 13.3443C4.17104 13.1154 4.24382 12.9174 4.39604 12.7502L4.45854 12.6877C4.68076 12.4654 4.94132 12.3163 5.24021 12.2402C5.53909 12.1641 5.83409 12.1674 6.12521 12.2502L7.50021 12.646V5.8335C7.50021 5.59738 7.58021 5.39961 7.74021 5.24016C7.90021 5.08072 8.09798 5.00072 8.33354 5.00016C8.56909 4.99961 8.76715 5.07961 8.92771 5.24016C9.08826 5.40072 9.16798 5.5985 9.16687 5.8335V11.6668H10.0002V9.16683C10.0002 8.93072 10.0802 8.73294 10.2402 8.5735C10.4002 8.41405 10.598 8.33405 10.8335 8.3335C11.0691 8.33294 11.2671 8.41294 11.4277 8.5735C11.5883 8.73405 11.668 8.93183 11.6669 9.16683V11.6668H12.5002V10.0002C12.5002 9.76405 12.5802 9.56627 12.7402 9.40683C12.9002 9.24739 13.098 9.16739 13.3335 9.16683C13.5691 9.16627 13.7671 9.24627 13.9277 9.40683C14.0883 9.56738 14.168 9.76516 14.1669 10.0002V11.6668H15.0002C15.0002 11.4307 15.0802 11.2329 15.2402 11.0735C15.4002 10.9141 15.598 10.8341 15.8335 10.8335C16.0691 10.8329 16.2671 10.9129 16.4277 11.0735C16.5883 11.2341 16.668 11.4318 16.6669 11.6668V15.0002C16.6669 15.9168 16.3405 16.7016 15.6877 17.3543C15.0349 18.0071 14.2502 18.3335 13.3335 18.3335H9.85437Z" fill="#B6B6B6"/>
</svg>
