<svg width="21" height="20" viewBox="0 0 21 20" fill="none" xmlns="http://www.w3.org/2000/svg">
<path d="M18.6716 8.368H18.0003V8.33341H10.5003V11.6667H15.2099C14.5228 13.6072 12.6766 15.0001 10.5003 15.0001C7.73908 15.0001 5.50033 12.7613 5.50033 10.0001C5.50033 7.23883 7.73908 5.00008 10.5003 5.00008C11.7749 5.00008 12.9345 5.48091 13.8174 6.26633L16.1745 3.90925C14.6862 2.52216 12.6953 1.66675 10.5003 1.66675C5.89824 1.66675 2.16699 5.398 2.16699 10.0001C2.16699 14.6022 5.89824 18.3334 10.5003 18.3334C15.1024 18.3334 18.8337 14.6022 18.8337 10.0001C18.8337 9.44133 18.7762 8.89591 18.6716 8.368Z" fill="#FFC107"/>
<path d="M3.12793 6.12133L5.86585 8.12925C6.60668 6.29508 8.40085 5.00008 10.5004 5.00008C11.775 5.00008 12.9346 5.48091 13.8175 6.26633L16.1746 3.90925C14.6863 2.52216 12.6954 1.66675 10.5004 1.66675C7.2996 1.66675 4.52376 3.47383 3.12793 6.12133Z" fill="#FF3D00"/>
<path d="M10.4998 18.3334C12.6523 18.3334 14.6081 17.5096 16.0869 16.17L13.5077 13.9875C12.6431 14.6455 11.5863 15.0012 10.4998 15C8.3323 15 6.49189 13.618 5.79855 11.6892L3.08105 13.783C4.46022 16.4817 7.26105 18.3334 10.4998 18.3334Z" fill="#4CAF50"/>
<path d="M18.6712 8.36784H18V8.33325H10.5V11.6666H15.2096C14.8809 12.5901 14.2889 13.3971 13.5067 13.9878L13.5079 13.987L16.0871 16.1695C15.9046 16.3353 18.8333 14.1666 18.8333 9.99992C18.8333 9.44117 18.7758 8.89575 18.6712 8.36784Z" fill="#1976D2"/>
</svg>
