<svg width="20" height="20" viewBox="0 0 20 20" fill="none" xmlns="http://www.w3.org/2000/svg">
<path d="M14.334 18.3334C16.5431 18.3334 18.334 16.5425 18.334 14.3334C18.334 12.1242 16.5431 10.3334 14.334 10.3334C12.1248 10.3334 10.334 12.1242 10.334 14.3334C10.334 16.5425 12.1248 18.3334 14.334 18.3334Z" stroke="#124163" stroke-width="1.5" stroke-miterlimit="10" stroke-linecap="round" stroke-linejoin="round"/>
<path d="M15.8251 14.3834H12.8418" stroke="#124163" stroke-width="1.5" stroke-miterlimit="10" stroke-linecap="round" stroke-linejoin="round"/>
<path d="M14.334 12.925V15.9167" stroke="#124163" stroke-width="1.5" stroke-miterlimit="10" stroke-linecap="round" stroke-linejoin="round"/>
<path d="M18.3327 7.24161C18.3327 8.88327 17.9077 10.3332 17.241 11.5916C16.5077 10.8166 15.4744 10.3333 14.3327 10.3333C12.1244 10.3333 10.3327 12.1249 10.3327 14.3333C10.3327 15.3583 10.7244 16.2916 11.3577 17C11.0494 17.1416 10.766 17.2583 10.516 17.3416C10.2327 17.4416 9.76602 17.4416 9.48269 17.3416C7.06602 16.5166 1.66602 13.0749 1.66602 7.24161C1.66602 4.66661 3.74101 2.58325 6.29935 2.58325C7.80768 2.58325 9.15768 3.31662 9.99935 4.44162C10.841 3.31662 12.191 2.58325 13.6994 2.58325C16.2577 2.58325 18.3327 4.66661 18.3327 7.24161Z" stroke="#124163" stroke-width="1.5" stroke-linecap="round" stroke-linejoin="round"/>
</svg>
