<svg width="16" height="16" viewBox="0 0 16 16" fill="none" xmlns="http://www.w3.org/2000/svg">
<path d="M7.59932 3.85309L7.99967 4.38822L8.40003 3.85309C8.98343 3.07329 9.91791 2.56689 10.9597 2.56689C12.7279 2.56689 14.1663 4.00736 14.1663 5.79356C14.1663 6.53251 14.0485 7.21398 13.8439 7.84631L13.8429 7.84957C13.352 9.40294 12.344 10.6607 11.2479 11.6027C10.1497 12.5466 8.99175 13.1485 8.25195 13.4002L8.25194 13.4002L8.2466 13.4021C8.20342 13.4173 8.11393 13.4336 7.99967 13.4336C7.88542 13.4336 7.79593 13.4173 7.75275 13.4021L7.75276 13.402L7.7474 13.4002C7.0076 13.1485 5.84967 12.5466 4.7514 11.6027C3.65533 10.6607 2.6473 9.40294 2.15644 7.84957L2.15645 7.84957L2.1554 7.84632C1.95082 7.21398 1.83301 6.53251 1.83301 5.79356C1.83301 4.00736 3.27148 2.56689 5.03967 2.56689C6.08144 2.56689 7.01592 3.07329 7.59932 3.85309Z" fill="#FF3B30" stroke="#FF3B30"/>
</svg>
