<svg width="20" height="20" viewBox="0 0 20 20" fill="none" xmlns="http://www.w3.org/2000/svg">
<path d="M18.86 6.36985L11.93 0.829849C10.86 -0.0301508 9.13002 -0.0301508 8.07002 0.819849L1.14002 6.36985C0.360021 6.98985 -0.139979 8.29985 0.0300209 9.27985L1.36002 17.2398C1.60002 18.6598 2.96002 19.8098 4.40002 19.8098H15.6C17.03 19.8098 18.4 18.6498 18.64 17.2398L19.97 9.27985C20.13 8.29985 19.63 6.98985 18.86 6.36985ZM10 13.4998C8.62002 13.4998 7.50002 12.3798 7.50002 10.9998C7.50002 9.61985 8.62002 8.49985 10 8.49985C11.38 8.49985 12.5 9.61985 12.5 10.9998C12.5 12.3798 11.38 13.4998 10 13.4998Z" fill="#151514"/>
</svg>
