<svg width="28" height="28" viewBox="0 0 28 28" fill="none" xmlns="http://www.w3.org/2000/svg">
<path d="M17.9208 9.48141C16.792 10.6102 15.4448 12.0769 15.2795 13.9856C15.4448 15.8943 16.7921 17.3609 17.9208 18.4897C19.4495 19.8071 20.4174 21.7572 20.4174 23.9335C20.4174 23.9373 20.4171 23.9411 20.4171 23.9449H20.4174V27.0088H6.05078V23.9449H6.05111C6.05111 23.9411 6.05078 23.9373 6.05078 23.9335C6.05078 21.7572 7.0187 19.8071 8.54737 18.4897C9.67618 17.3609 11.0234 15.8943 11.1887 13.9856C11.0234 12.0769 9.67613 10.6102 8.54737 9.48141C7.0187 8.16409 6.05078 6.21399 6.05078 4.0377V0.927734H20.4174V4.0377C20.4174 6.21399 19.4495 8.16409 17.9208 9.48141Z" fill="#BCDAFB" fill-opacity="0.4"/>
<path d="M13.2343 23.3791C13.7689 23.3791 16.4869 26.3373 16.4869 26.3373H9.98167C9.98167 26.3373 12.6996 23.3791 13.2343 23.3791ZM12.9472 19.4513C12.9044 19.4508 12.8619 19.4587 12.8223 19.4747C12.7826 19.4907 12.7465 19.5144 12.7161 19.5444C12.6856 19.5745 12.6615 19.6103 12.645 19.6497C12.6285 19.6892 12.62 19.7315 12.62 19.7743C12.62 19.8171 12.6285 19.8594 12.645 19.8989C12.6615 19.9383 12.6856 19.9741 12.7161 20.0041C12.7465 20.0342 12.7826 20.0579 12.8223 20.0739C12.8619 20.0899 12.9044 20.0978 12.9472 20.0972C13.0321 20.0961 13.1132 20.0616 13.1728 20.0012C13.2325 19.9407 13.2659 19.8592 13.2659 19.7743C13.2659 19.6893 13.2325 19.6078 13.1728 19.5474C13.1132 19.4869 13.0321 19.4524 12.9472 19.4513ZM13.2701 20.5997C13.2274 20.5992 13.1849 20.6071 13.1453 20.6231C13.1056 20.6391 13.0695 20.6628 13.039 20.6928C13.0086 20.7228 12.9844 20.7586 12.9679 20.7981C12.9514 20.8376 12.943 20.8799 12.943 20.9227C12.943 20.9654 12.9514 21.0078 12.9679 21.0472C12.9844 21.0867 13.0086 21.1225 13.039 21.1525C13.0695 21.1826 13.1056 21.2063 13.1453 21.2223C13.1849 21.2382 13.2274 21.2462 13.2701 21.2456C13.3551 21.2445 13.4361 21.21 13.4958 21.1496C13.5555 21.0891 13.5889 21.0076 13.5889 20.9227C13.5889 20.8377 13.5555 20.7562 13.4958 20.6958C13.4361 20.6353 13.3551 20.6008 13.2701 20.5997ZM12.4876 22.5275C12.4448 22.5269 12.4023 22.5349 12.3627 22.5509C12.323 22.5668 12.2869 22.5905 12.2565 22.6206C12.226 22.6506 12.2019 22.6864 12.1854 22.7259C12.1689 22.7653 12.1604 22.8077 12.1604 22.8505C12.1604 22.8932 12.1689 22.9356 12.1854 22.975C12.2019 23.0145 12.226 23.0503 12.2565 23.0803C12.2869 23.1104 12.323 23.1341 12.3627 23.15C12.4023 23.166 12.4448 23.174 12.4876 23.1734C12.5725 23.1723 12.6536 23.1378 12.7132 23.0773C12.7729 23.0169 12.8063 22.9354 12.8063 22.8505C12.8063 22.7655 12.7729 22.684 12.7132 22.6236C12.6536 22.5631 12.5725 22.5286 12.4876 22.5275ZM13.4479 17.9792C13.4051 17.9786 13.3627 17.9866 13.323 18.0026C13.2833 18.0185 13.2472 18.0422 13.2168 18.0723C13.1863 18.1023 13.1622 18.1381 13.1457 18.1776C13.1292 18.217 13.1207 18.2594 13.1207 18.3022C13.1207 18.3449 13.1292 18.3873 13.1457 18.4267C13.1622 18.4662 13.1863 18.502 13.2168 18.532C13.2472 18.5621 13.2833 18.5858 13.323 18.6017C13.3627 18.6177 13.4051 18.6257 13.4479 18.6251C13.5328 18.624 13.6139 18.5895 13.6735 18.529C13.7332 18.4686 13.7667 18.3871 13.7667 18.3022C13.7667 18.2172 13.7332 18.1357 13.6735 18.0753C13.6139 18.0148 13.5328 17.9803 13.4479 17.9792ZM7.88867 6.50384C7.88867 7.84456 9.40516 9.04599 10.3469 9.85755C11.0423 10.553 12.2313 11.8689 12.2313 13.5209C12.2313 13.5762 12.2339 13.6292 12.2382 13.6806C12.2732 15.0302 12.446 16.5352 12.8747 17.0722C12.8403 17.1143 12.8171 17.1644 12.8072 17.2178C12.7973 17.2712 12.8011 17.3263 12.8181 17.3779C12.8352 17.4295 12.865 17.476 12.9047 17.513C12.9445 17.55 12.993 17.5764 13.0457 17.5897C13.0984 17.603 13.1536 17.6028 13.2062 17.5891C13.2587 17.5755 13.307 17.5487 13.3465 17.5114C13.3861 17.4741 13.4155 17.4274 13.4322 17.3757C13.4489 17.324 13.4522 17.2689 13.442 17.2155C14.0176 16.8615 14.2172 15.0224 14.2358 13.4023C14.3342 12.0076 15.457 10.5221 16.1216 9.85755C17.0634 9.04599 18.5799 7.84462 18.5799 6.50384C18.5799 5.85158 7.88867 5.85158 7.88867 6.50384ZM13.6054 21.9122C13.5626 21.9116 13.5202 21.9195 13.4805 21.9355C13.4408 21.9515 13.4047 21.9752 13.3743 22.0052C13.3438 22.0353 13.3197 22.0711 13.3032 22.1105C13.2867 22.15 13.2782 22.1923 13.2782 22.2351C13.2782 22.2779 13.2867 22.3202 13.3032 22.3597C13.3197 22.3991 13.3438 22.4349 13.3743 22.465C13.4047 22.495 13.4408 22.5187 13.4805 22.5347C13.5202 22.5507 13.5626 22.5586 13.6054 22.5581C13.6903 22.557 13.7714 22.5224 13.831 22.462C13.8907 22.4016 13.9242 22.32 13.9242 22.2351C13.9242 22.1502 13.8907 22.0687 13.831 22.0082C13.7714 21.9478 13.6903 21.9133 13.6054 21.9122Z" fill="#7AAFE9"/>
<path d="M20.4168 1.72958H6.05009C5.60712 1.72958 5.24805 1.3705 5.24805 0.927535C5.24805 0.484566 5.60712 0.125488 6.05009 0.125488H20.4168C20.8597 0.125488 21.2188 0.484566 21.2188 0.927535C21.2188 1.3705 20.8597 1.72958 20.4168 1.72958ZM21.2188 27.0086C21.2188 26.5656 20.8597 26.2066 20.4168 26.2066H6.05009C5.60712 26.2066 5.24805 26.5656 5.24805 27.0086C5.24805 27.4516 5.60712 27.8106 6.05009 27.8106H20.4168C20.8597 27.8106 21.2188 27.4516 21.2188 27.0086Z" fill="#007AFF"/>
<path d="M18.5799 6.3128C18.5799 6.80914 16.1866 7.21153 13.2343 7.21153C10.282 7.21153 7.88867 6.80914 7.88867 6.3128C7.88867 5.81645 10.282 5.41406 13.2343 5.41406C16.1866 5.41406 18.5799 5.81645 18.5799 6.3128Z" fill="#007AFF"/>
</svg>
