<svg width="29" height="28" viewBox="0 0 29 28" fill="none" xmlns="http://www.w3.org/2000/svg">
<path d="M14.5024 22.8963C12.9215 21.8031 11.0992 21.1101 9.19171 20.8768C7.83314 20.5978 6.44853 20.4656 5.06171 20.4824C4.8774 20.4942 4.69273 20.4657 4.52055 20.3989C4.34836 20.3321 4.19279 20.2286 4.06466 20.0956C3.93653 19.9626 3.83891 19.8033 3.77859 19.6287C3.71828 19.4541 3.6967 19.2685 3.71538 19.0848L3.71421 6.37978C3.71421 6.04251 3.84819 5.71906 4.08668 5.48057C4.32516 5.24209 4.64861 5.10811 4.98588 5.10811C6.39707 5.07736 7.80739 5.20099 9.19171 5.47678C11.1019 5.71748 12.9246 6.41984 14.5024 7.52311M14.5024 22.8963V7.52311M14.5024 22.8963C16.0778 21.7843 17.9007 21.0735 19.813 20.8254C21.1716 20.5465 22.5562 20.4143 23.943 20.4311C24.1227 20.442 24.3026 20.4147 24.4709 20.3508C24.6392 20.287 24.792 20.1882 24.9193 20.061C25.0465 19.9337 25.1453 19.7809 25.2091 19.6126C25.2729 19.4443 25.3003 19.2644 25.2894 19.0848V6.45561C25.2997 6.28244 25.2745 6.10899 25.2153 5.94592C25.1562 5.78285 25.0642 5.63362 24.9452 5.5074C24.8262 5.38118 24.6826 5.28064 24.5233 5.21197C24.364 5.14331 24.1924 5.10796 24.0189 5.10811C22.6077 5.07736 21.1974 5.20099 19.813 5.47678C17.9029 5.71748 16.0801 6.41984 14.5024 7.52311M7.05788 9.60678H8.51855M7.05788 16.6196H9.19755M7.24338 13.1138H11.1517" stroke="#151514" stroke-width="1.5" stroke-linecap="round" stroke-linejoin="round"/>
</svg>
