<svg width="29" height="28" viewBox="0 0 29 28" fill="none" xmlns="http://www.w3.org/2000/svg">
<path d="M26.1667 6.76304V19.3164C26.1796 19.6031 26.1319 19.8893 26.0267 20.1564C25.8625 20.5833 25.5677 20.9473 25.1843 21.1967C24.8009 21.446 24.3485 21.5678 23.8917 21.5447C22.5792 21.526 21.2686 21.6512 19.9834 21.918C18.4571 22.1208 16.9882 22.6329 15.6667 23.423V6.08754C16.9375 5.47546 18.302 5.08108 19.7034 4.92088C21.1319 4.63746 22.5874 4.51226 24.0434 4.54754C24.3292 4.54167 24.6126 4.60154 24.8717 4.72254C25.14 4.83688 25.3815 5.00254 25.5834 5.21254C25.7807 5.43054 25.9351 5.68387 26.0384 5.95921C26.1317 6.21704 26.176 6.48888 26.1667 6.76304ZM9.36671 4.88471C7.92331 4.59395 6.45202 4.46482 4.98004 4.49971C4.6988 4.49659 4.41977 4.54967 4.15933 4.65586C3.89889 4.76205 3.66228 4.91919 3.4634 5.11807C3.26453 5.31695 3.10738 5.55356 3.00119 5.814C2.89501 6.07444 2.84192 6.35347 2.84504 6.63471V19.3164C2.81057 19.6267 2.84613 19.9408 2.9491 20.2356C3.05207 20.5304 3.21983 20.7983 3.44004 21.0197C3.6498 21.239 3.90412 21.4108 4.18587 21.5235C4.46762 21.6362 4.77025 21.6872 5.07338 21.673C6.42172 21.6562 7.76776 21.7892 9.08671 22.0697C10.5867 22.2472 12.0331 22.736 13.3334 23.5047V6.08638C12.0899 5.46128 10.7481 5.0548 9.36671 4.88471ZM7.03338 8.99138H8.49171C8.72377 8.99138 8.94633 9.08357 9.11043 9.24766C9.27452 9.41175 9.36671 9.63431 9.36671 9.86638C9.36671 10.0984 9.27452 10.321 9.11043 10.4851C8.94633 10.6492 8.72377 10.7414 8.49171 10.7414H7.03338C6.80131 10.7414 6.57875 10.6492 6.41466 10.4851C6.25056 10.321 6.15838 10.0984 6.15838 9.86638C6.15838 9.63431 6.25056 9.41175 6.41466 9.24766C6.57875 9.08357 6.80131 8.99138 7.03338 8.99138ZM9.18004 17.753H7.03338C6.80131 17.753 6.57875 17.6609 6.41466 17.4968C6.25056 17.3327 6.15838 17.1101 6.15838 16.878C6.15838 16.646 6.25056 16.4234 6.41466 16.2593C6.57875 16.0952 6.80131 16.003 7.03338 16.003H9.18004C9.41211 16.003 9.63467 16.0952 9.79876 16.2593C9.96286 16.4234 10.055 16.646 10.055 16.878C10.055 17.1101 9.96286 17.3327 9.79876 17.4968C9.63467 17.6609 9.41211 17.753 9.18004 17.753ZM11.1284 14.253H7.22004C6.98798 14.253 6.76542 14.1609 6.60132 13.9968C6.43723 13.8327 6.34504 13.6101 6.34504 13.378C6.34504 13.146 6.43723 12.9234 6.60132 12.7593C6.76542 12.5952 6.98798 12.503 7.22004 12.503H11.1284C11.3604 12.503 11.583 12.5952 11.7471 12.7593C11.9112 12.9234 12.0034 13.146 12.0034 13.378C12.0034 13.6101 11.9112 13.8327 11.7471 13.9968C11.583 14.1609 11.3604 14.253 11.1284 14.253Z" fill="#151514"/>
</svg>
