<svg width="25" height="24" viewBox="0 0 25 24" fill="none" xmlns="http://www.w3.org/2000/svg">
<path d="M10.5725 20.3786C8.68372 19.5866 6.33082 18.8918 4.63648 18.6645L4.63398 18.6642L4.32398 18.6242L4.32398 18.6242L4.32139 18.6239C3.59961 18.5346 3 17.8554 3 17.1401V5.25008C3 4.32622 3.74614 3.58008 4.67 3.58008H4.71844C6.52016 3.73821 9.20956 4.59114 10.9812 5.54936M10.5725 20.3786C10.5728 20.3787 10.5731 20.3789 10.5734 20.379L10.3801 20.84L10.5718 20.3783C10.572 20.3784 10.5723 20.3785 10.5725 20.3786ZM10.5725 20.3786C10.884 20.5074 11.25 20.2732 11.25 19.9101V6.00008C11.25 5.80598 11.1526 5.6431 10.9812 5.54936M10.9812 5.54936C10.9815 5.54952 10.9818 5.54969 10.9821 5.54985L11.22 5.11009L10.9806 5.54903C10.9808 5.54914 10.981 5.54925 10.9812 5.54936Z" fill="#151514" stroke="#151514"/>
<path d="M19.5802 3.6736L19.5803 3.67372L19.591 3.67172C19.8327 3.62698 20.0683 3.59911 20.2911 3.58008H20.33C21.2539 3.58008 22 4.32622 22 5.25008V17.1401C22 17.8554 21.4004 18.5346 20.6786 18.6239L20.6786 18.6239L20.676 18.6242L20.366 18.6642L20.3635 18.6645C18.6692 18.8918 16.3162 19.5867 14.4274 20.3787C14.116 20.5074 13.75 20.2731 13.75 19.9101V6.00008C13.75 5.82292 13.851 5.6474 14.0271 5.55031C14.5198 5.28961 15.0825 5.02759 15.6857 4.78431C16.9675 4.27562 18.3919 3.86683 19.5802 3.6736ZM20.1547 14.2301H20.28V13.7301V10.6601C20.28 9.92394 19.6761 9.32008 18.94 9.32008H16.84C16.1039 9.32008 15.5 9.92394 15.5 10.6601V13.7301C15.5 14.0355 15.6136 14.3743 15.9253 14.5613C16.2396 14.7499 16.5936 14.6875 16.8635 14.5368C16.8637 14.5367 16.8638 14.5366 16.8639 14.5366L17.885 13.9682L18.9061 14.5366C18.9062 14.5366 18.9064 14.5367 18.9065 14.5368C19.1764 14.6875 19.5305 14.7499 19.8447 14.5613C19.9862 14.4764 20.0869 14.3602 20.1547 14.2301Z" fill="#151514" stroke="#151514"/>
</svg>
