<svg width="25" height="24" viewBox="0 0 25 24" fill="none" xmlns="http://www.w3.org/2000/svg">
<path d="M22.5 4.6697V16.7397C22.5 17.6997 21.72 18.5997 20.76 18.7197L20.43 18.7597C18.25 19.0497 14.89 20.1597 12.97 21.2197C12.71 21.3697 12.28 21.3697 12.01 21.2197L11.97 21.1997C10.05 20.1497 6.70003 19.0497 4.53003 18.7597L4.23999 18.7197C3.27999 18.5997 2.5 17.6997 2.5 16.7397V4.65969C2.5 3.46969 3.46997 2.5697 4.65997 2.6697C6.75997 2.8397 9.93997 3.89973 11.72 5.00973L11.97 5.15969C12.26 5.33969 12.74 5.33969 13.03 5.15969L13.2 5.04971C13.83 4.65971 14.63 4.2697 15.5 3.9197V7.99972L17.5 6.6697L19.5 7.99972V2.77975C19.77 2.72975 20.03 2.69971 20.27 2.67971H20.33C21.52 2.57971 22.5 3.4697 22.5 4.6697Z" stroke="#151514" stroke-width="1.5" stroke-linecap="round" stroke-linejoin="round"/>
<path d="M12.5 5.49023V20.4902" stroke="#151514" stroke-width="1.5" stroke-linecap="round" stroke-linejoin="round"/>
<path d="M19.5 2.7793V7.99927L17.5 6.66925L15.5 7.99927V3.91925C16.81 3.39925 18.27 2.9793 19.5 2.7793Z" stroke="#151514" stroke-width="1.5" stroke-linecap="round" stroke-linejoin="round"/>
</svg>
