<svg width="15" height="18" viewBox="0 0 15 18" fill="none" xmlns="http://www.w3.org/2000/svg">
<path d="M10.5 0.749927C10.5 0.602415 10.4565 0.458182 10.3749 0.335274C10.2933 0.212366 10.1773 0.116242 10.0414 0.058927C9.90548 0.0016122 9.75568 -0.0143475 9.61073 0.0130444C9.46578 0.0404363 9.33213 0.109963 9.2265 0.212927L4.836 4.48793H2.25C1.65326 4.48793 1.08097 4.72498 0.65901 5.14694C0.237053 5.56889 0 6.14119 0 6.73793V11.2229C0 11.8197 0.237053 12.392 0.65901 12.8139C1.08097 13.2359 1.65326 13.4729 2.25 13.4729H4.8345L9.225 17.7854C9.33047 17.8888 9.46412 17.9588 9.60918 17.9865C9.75424 18.0142 9.90426 17.9985 10.0404 17.9413C10.1766 17.8841 10.2928 17.788 10.3746 17.665C10.4564 17.542 10.5 17.3976 10.5 17.2499V0.749927ZM12.1665 4.78343C12.2278 4.70626 12.3038 4.64193 12.39 4.59413C12.4762 4.54633 12.5709 4.51599 12.6689 4.50485C12.7668 4.4937 12.866 4.50197 12.9607 4.52918C13.0555 4.55639 13.1439 4.60201 13.221 4.66343L13.224 4.66493L13.227 4.66793L13.2345 4.67393L13.257 4.69343L13.326 4.75343C13.381 4.80343 13.452 4.87443 13.539 4.96643C13.7085 5.15093 13.929 5.41943 14.1465 5.77643C14.583 6.49643 15.006 7.56593 15.006 8.99843C15.006 10.4294 14.583 11.5004 14.1465 12.2204C13.9715 12.5104 13.7679 12.7823 13.539 13.0319C13.4427 13.1346 13.3415 13.2327 13.236 13.3259L13.224 13.3364H13.2225C13.2225 13.3364 12.552 13.7009 12.168 13.2194C12.0445 13.0649 11.9871 12.8679 12.0081 12.6713C12.0292 12.4746 12.1271 12.2943 12.2805 12.1694L12.2835 12.1664L12.3105 12.1424C12.3385 12.1174 12.381 12.0749 12.438 12.0149C12.5986 11.8385 12.7413 11.6466 12.864 11.4419C13.179 10.9244 13.506 10.1189 13.506 8.99693C13.506 7.87493 13.179 7.07243 12.864 6.55643C12.7095 6.302 12.5241 6.06771 12.312 5.85893L12.285 5.83493C12.1303 5.71093 12.0309 5.53069 12.0087 5.33364C11.9865 5.13659 12.0432 4.93876 12.1665 4.78343Z" fill="#151514"/>
</svg>
