<svg width="24" height="24" viewBox="0 0 24 24" fill="none" xmlns="http://www.w3.org/2000/svg">
<g clip-path="url(#clip0_506_6458)">
<path d="M14.8819 6.16571C14.9109 6.27308 14.9609 6.37366 15.0289 6.46171C15.0968 6.54976 15.1815 6.62354 15.278 6.67885C15.3745 6.73416 15.481 6.7699 15.5913 6.78403C15.7016 6.79816 15.8137 6.79041 15.921 6.76121L18.7665 5.98984C18.8738 5.96088 18.9743 5.91107 19.0623 5.84324C19.1504 5.77541 19.2242 5.6909 19.2795 5.59453C19.3348 5.49816 19.3707 5.39183 19.3849 5.28162C19.3991 5.1714 19.3914 5.05947 19.3624 4.95221L18.846 3.04271C18.7872 2.82582 18.6446 2.64116 18.4497 2.52934C18.2548 2.41753 18.0234 2.38772 17.8065 2.44646L14.961 3.21784C14.7443 3.27673 14.5598 3.41925 14.448 3.61409C14.3363 3.80893 14.3065 4.04015 14.3651 4.25696L14.8819 6.16571ZM9.156 6.21784C9.09686 6.4342 8.95435 6.6183 8.75972 6.72978C8.56508 6.84127 8.33418 6.87104 8.11763 6.81259L5.2725 6.04121C5.16515 6.01234 5.06453 5.96258 4.97643 5.89479C4.88832 5.82699 4.81444 5.74249 4.75903 5.64611C4.70361 5.54974 4.66775 5.44338 4.65348 5.33313C4.63921 5.22288 4.64682 5.11089 4.67588 5.00359L5.19263 3.09446C5.2516 2.8777 5.39421 2.69323 5.58913 2.58156C5.78404 2.4699 6.01532 2.44019 6.23213 2.49896L9.07688 3.27034C9.29359 3.32908 9.47814 3.47142 9.59 3.6661C9.70186 3.86078 9.73189 4.0919 9.6735 4.30871L9.156 6.21784Z" fill="#586E22"/>
<path d="M11.415 4.00205C11.6217 4.56155 11.8759 5.30329 12.015 6.07804C12.1628 6.91354 11.8512 7.3733 11.265 7.88704C11.0933 8.03592 11.0348 8.25605 11.1105 8.46267C11.1904 8.67379 11.397 8.82154 11.6138 8.82154C11.7387 8.82154 11.8583 8.77504 11.9599 8.68579C12.4598 8.25042 12.8333 7.84392 13.0305 7.27242C13.2653 6.59704 13.0737 5.8088 12.9319 5.23317C12.7737 4.59117 12.5434 3.96305 12.3192 3.35442L12.2569 3.18755C11.9232 2.2808 11.8437 1.59792 12.4148 0.787545C12.5307 0.62067 12.5475 0.426795 12.4594 0.25467C12.2877 -0.0757047 11.7653 -0.133455 11.5395 0.187545C11.2133 0.649545 10.8818 1.23042 10.8949 2.02767C10.9069 2.64755 11.1255 3.22767 11.337 3.78942L11.4169 4.0013" fill="#124163"/>
<path d="M11.5279 8.48344C11.451 8.27794 11.5103 8.05744 11.6813 7.90819C12.2685 7.39519 12.5805 6.93469 12.4313 6.09994C12.2937 5.32519 12.0387 4.58494 11.8324 4.02394L11.7525 3.81132C11.5425 3.24994 11.3228 2.66982 11.3115 2.04994C11.2973 1.25119 11.6288 0.671441 11.9558 0.209816C12.0075 0.134441 12.0765 0.0815661 12.1519 0.0459411C11.9277 -0.0523089 11.6382 -0.00918388 11.4848 0.209816C11.1582 0.671066 10.8282 1.25119 10.8402 2.04994C10.8529 2.66982 11.0697 3.24994 11.2823 3.81132L11.3607 4.02394C11.5688 4.58344 11.8234 5.32519 11.9614 6.09994C12.1092 6.93469 11.7975 7.39519 11.2114 7.90819C11.0389 8.05744 10.9804 8.27794 11.058 8.48344C11.136 8.69532 11.3427 8.84344 11.559 8.84344C11.64 8.84344 11.7192 8.82057 11.7938 8.78194C11.671 8.71899 11.5765 8.61258 11.5279 8.48344Z" fill="#586E22"/>
<path d="M2.23964 6.18023C5.38364 1.01273 10.1221 4.60748 10.1221 4.60748C10.4293 4.83923 10.9959 5.03048 11.3795 5.03198L12.65 5.03273C13.0351 5.03273 13.6021 4.84223 13.9085 4.60898C13.9085 4.60898 18.6466 1.01498 21.791 6.18098C24.9376 11.3466 23.6698 16.972 23.6698 16.972C23.4466 18.3497 22.7154 19.2689 21.3343 19.1522C19.9573 19.0371 16.9689 15.4442 16.9689 15.4442C16.7229 15.1476 16.2058 14.9054 15.8199 14.9054L8.21264 14.9035C7.82901 14.9035 7.31226 15.1457 7.06551 15.4409C7.06551 15.4409 4.07489 19.0371 2.69789 19.1519C1.31714 19.2674 0.584765 18.3464 0.36464 16.9701C0.36464 16.9709 -0.904735 11.3455 2.23964 6.18023Z" fill="#124163"/>
<path d="M3.92524 16.9502C3.92524 16.9502 2.65586 11.3252 5.79986 6.15996C6.58661 4.86771 7.47274 4.12296 8.35999 3.73333C6.69424 3.15246 4.14499 3.00246 2.20399 6.19146C-0.938888 11.3586 0.328987 16.9825 0.328987 16.9825C0.549862 18.3602 1.28336 19.2797 2.66224 19.1631C3.10774 19.1275 3.72161 18.7247 4.34861 18.2001C4.14161 17.8551 4.00174 17.4313 3.92524 16.9502ZM14.9409 5.00983H16.2106C16.5946 5.01133 17.1612 4.82008 17.468 4.58796C17.468 4.58796 18.1246 4.09033 19.1109 3.73108C16.4821 2.64246 13.8729 4.62058 13.8729 4.62058C13.8509 4.63708 13.828 4.65308 13.8042 4.66858C14.1241 4.86246 14.6022 5.00946 14.9405 5.00946M20.5276 15.424C20.2827 15.1273 19.7656 14.8847 19.3805 14.8847L11.7732 14.884C11.6833 14.8856 11.5937 14.897 11.5062 14.9181H15.785C16.1694 14.9181 16.6876 15.1603 16.9329 15.457C16.9329 15.457 19.922 19.0513 21.299 19.1665C22.2181 19.2433 22.8489 18.8612 23.234 18.1903C21.9147 17.0905 20.5276 15.424 20.5276 15.424Z" fill="#586E22"/>
<path d="M8.90594 8.80061C8.89711 8.68683 8.89348 8.57271 8.89506 8.45861C8.89446 8.43999 8.899 8.42156 8.90819 8.40536C8.8665 8.32362 8.81389 8.24793 8.75181 8.18036C8.73874 8.16704 8.72918 8.15067 8.72401 8.13273C8.71884 8.11479 8.71821 8.09585 8.72219 8.07761H7.14419V6.49023H5.43944V8.07761H4.07031V9.80861H5.43944V11.093H7.14419V9.80861H8.81294C8.82269 9.49398 8.89919 9.17936 8.93706 8.86586C8.91901 8.84868 8.90793 8.82545 8.90594 8.80061Z" fill="#B6C4CF"/>
<path d="M7.15253 6.44753C7.15253 6.20266 6.95453 6.00391 6.71041 6.00391H5.88503C5.64091 6.00391 5.44141 6.20266 5.44141 6.44753C5.44141 6.69166 5.64053 6.89041 5.88503 6.89041H6.71041C6.76852 6.89036 6.82605 6.87886 6.87971 6.85658C6.93338 6.8343 6.98214 6.80166 7.02319 6.76054C7.06425 6.71941 7.0968 6.6706 7.11899 6.6169C7.14118 6.56319 7.15258 6.50564 7.15253 6.44753Z" fill="#B6C4CF"/>
<path d="M4.07031 9.78422V8.07984H5.42631V6.85547H7.15731V8.07984H8.74544V9.78422H7.15731V11.0952H5.42631V9.78422H4.07031Z" fill="#B6C4CF"/>
<path d="M8.79053 9.78665C9.03503 9.78665 9.23341 9.58827 9.23341 9.3434V8.51877C9.2287 8.40447 9.17998 8.29641 9.09744 8.21719C9.0149 8.13798 8.90493 8.09375 8.79053 8.09375C8.67613 8.09375 8.56616 8.13798 8.48362 8.21719C8.40108 8.29641 8.35236 8.40447 8.34766 8.51877V9.3434C8.34756 9.4016 8.35894 9.45925 8.38116 9.51305C8.40338 9.56685 8.43599 9.61573 8.47713 9.65691C8.51827 9.69808 8.56713 9.73074 8.62091 9.753C8.67468 9.77526 8.73233 9.7867 8.79053 9.78665Z" fill="#B6C4CF"/>
<path d="M3.67881 9.08595C3.69044 9.20032 3.69044 9.3132 3.69044 9.42757C3.69099 9.44599 3.68631 9.4642 3.67694 9.48007C3.71719 9.55932 3.76894 9.63457 3.83219 9.70582C3.86181 9.73807 3.87119 9.7752 3.86256 9.80782H5.44019V11.3956H7.14606V9.80782H8.51444V8.0772H7.14606V6.79395H5.44019V8.0772H3.77144C3.76281 8.3922 3.68594 8.70645 3.64844 9.01957C3.66617 9.03735 3.67695 9.0609 3.67881 9.08595Z" fill="#B6C4CF"/>
<path d="M5.43359 11.4384C5.43359 11.6832 5.63309 11.8824 5.87909 11.8824H6.70259C6.94709 11.8824 7.14622 11.6832 7.14622 11.4384C7.14622 11.195 6.94709 10.9951 6.70259 10.9951H5.87909C5.63309 10.9951 5.43359 11.195 5.43359 11.4384Z" fill="#B6C4CF"/>
<path d="M8.51497 8.10307V9.80744H7.15897V11.0326H5.42722V9.80744H3.83984V8.10307H5.42722V6.79395H7.15897V8.10307H8.51497Z" fill="#B6C4CF"/>
<path d="M3.79602 8.09766C3.73787 8.09766 3.6803 8.10912 3.62659 8.13138C3.57288 8.15364 3.52408 8.18627 3.48299 8.22739C3.44189 8.26852 3.40931 8.31735 3.38709 8.37108C3.36488 8.42481 3.35347 8.48239 3.35352 8.54053V9.36478C3.35352 9.48224 3.40018 9.59489 3.48323 9.67794C3.56629 9.761 3.67893 9.80766 3.79639 9.80766C3.91385 9.80766 4.0265 9.761 4.10955 9.67794C4.19261 9.59489 4.23927 9.48224 4.23927 9.36478V8.54053C4.23932 8.48233 4.22788 8.42468 4.20562 8.37091C4.18336 8.31713 4.1507 8.26827 4.10953 8.22713C4.06835 8.18599 4.01947 8.15338 3.96567 8.13116C3.91187 8.10894 3.85422 8.09756 3.79602 8.09766Z" fill="#B6C4CF"/>
<path d="M8.70041 8.64677C8.69084 8.53315 8.68646 8.41916 8.68728 8.30514C8.68728 8.28452 8.69328 8.26727 8.70041 8.25264C8.65895 8.17095 8.6066 8.09525 8.54478 8.02764C8.53204 8.01418 8.5227 7.99786 8.51755 7.98005C8.51239 7.96224 8.51157 7.94346 8.51516 7.92527H6.93903V6.33789H5.23428V7.92527H3.86328V9.65702H5.23428V10.9395H6.93903V9.65702H8.60628C8.61603 9.34089 8.69328 9.02627 8.73041 8.71314C8.71252 8.6955 8.70183 8.67185 8.70041 8.64677Z" fill="#E7ECEF"/>
<path d="M6.94047 6.29541C6.94047 6.05129 6.74172 5.85254 6.49759 5.85254H5.67259C5.61448 5.85259 5.55695 5.86408 5.50329 5.88637C5.44962 5.90865 5.40086 5.94128 5.35981 5.98241C5.31875 6.02353 5.2862 6.07234 5.26401 6.12605C5.24182 6.17975 5.23042 6.2373 5.23047 6.29541C5.23037 6.35356 5.24173 6.41115 5.2639 6.4649C5.28607 6.51864 5.31862 6.5675 5.35968 6.60866C5.40074 6.64983 5.44951 6.68249 5.5032 6.7048C5.55689 6.72711 5.61445 6.73862 5.67259 6.73866H6.49759C6.74172 6.73866 6.94047 6.54029 6.94047 6.29541Z" fill="#E7ECEF"/>
<path d="M3.86328 9.63188V7.92675H5.22041V6.70312H6.95103V7.92675H8.53916V9.63188H6.95103V10.941H5.22041V9.63188H3.86328Z" fill="#E7ECEF"/>
<path d="M8.57959 9.63691C8.82634 9.63691 9.02397 9.43779 9.02397 9.19291V8.36866C9.02402 8.31036 9.01255 8.25263 8.99021 8.19877C8.96788 8.14492 8.93513 8.09601 8.89383 8.05486C8.85254 8.0137 8.80352 7.98112 8.74959 7.95896C8.69567 7.93681 8.63789 7.92554 8.57959 7.92579C8.33622 7.92579 8.13672 8.12341 8.13672 8.36866V9.19291C8.13672 9.43779 8.33622 9.63691 8.57959 9.63691Z" fill="#E7ECEF"/>
<path d="M3.47141 8.93398C3.48116 9.0476 3.48191 9.16235 3.48191 9.27523C3.48153 9.29377 3.47771 9.31208 3.47066 9.32923C3.50966 9.40823 3.56078 9.4831 3.62403 9.55385C3.65403 9.5861 3.66266 9.62323 3.65441 9.6566H5.23203V11.2432H6.93678V9.6566H8.30591V7.9256H6.93678V6.6416H5.23203V7.9256H3.56516C3.55578 8.2406 3.47703 8.55523 3.44141 8.86798C3.45842 8.88606 3.46896 8.90927 3.47141 8.93398Z" fill="#E7ECEF"/>
<path d="M5.22657 11.2871C5.22627 11.3454 5.23751 11.4032 5.25964 11.4572C5.28177 11.5112 5.31435 11.5602 5.35551 11.6016C5.39667 11.6429 5.44559 11.6757 5.49947 11.698C5.55335 11.7204 5.61111 11.7319 5.66944 11.7318H6.49369C6.60897 11.7285 6.7184 11.6803 6.79875 11.5976C6.8791 11.5149 6.92405 11.4041 6.92405 11.2888C6.92405 11.1734 6.8791 11.0627 6.79875 10.9799C6.7184 10.8972 6.60897 10.8491 6.49369 10.8457H5.66944C5.42419 10.8457 5.22657 11.0433 5.22657 11.2871Z" fill="#E7ECEF"/>
<path d="M8.30216 7.94952V9.65465H6.94728V10.8783H5.21553V9.65465H3.62891V7.94952H5.21553V6.63965H6.94728V7.94952H8.30216Z" fill="#E7ECEF"/>
<path d="M3.58658 7.94629C3.34245 7.94629 3.14258 8.14466 3.14258 8.39066V9.21416C3.14593 9.32954 3.19412 9.43906 3.27692 9.51948C3.35971 9.59991 3.47059 9.64489 3.58602 9.64489C3.70144 9.64489 3.81232 9.59991 3.89511 9.51948C3.97791 9.43906 4.0261 9.32954 4.02945 9.21416V8.39066C4.02945 8.14504 3.83145 7.94629 3.58658 7.94629Z" fill="#E7ECEF"/>
<path d="M20.466 6.78336C20.466 7.05572 20.3578 7.31693 20.1652 7.50951C19.9726 7.7021 19.7114 7.8103 19.439 7.8103C19.1667 7.8103 18.9055 7.7021 18.7129 7.50951C18.5203 7.31693 18.4121 7.05572 18.4121 6.78336C18.4121 6.51085 18.5204 6.2495 18.7131 6.05681C18.9058 5.86411 19.1671 5.75586 19.4396 5.75586C19.5745 5.75586 19.708 5.78244 19.8326 5.83409C19.9572 5.88575 20.0704 5.96145 20.1658 6.05688C20.2611 6.1523 20.3367 6.26558 20.3882 6.39024C20.4397 6.51489 20.4661 6.64848 20.466 6.78336Z" fill="#62D384"/>
<path d="M16.6412 8.60555C17.2088 8.60555 17.669 8.14536 17.669 7.57768C17.669 7.01 17.2088 6.5498 16.6412 6.5498C16.0735 6.5498 15.6133 7.01 15.6133 7.57768C15.6133 8.14536 16.0735 8.60555 16.6412 8.60555Z" fill="#62D384"/>
<path d="M21.4919 9.49392C21.4915 9.76664 21.3829 10.028 21.1899 10.2207C20.9969 10.4134 20.7353 10.5215 20.4625 10.5214C20.1935 10.5163 19.9372 10.4058 19.7487 10.2137C19.5603 10.0216 19.4547 9.76322 19.4547 9.49411C19.4547 9.225 19.5603 8.96663 19.7487 8.77453C19.9372 8.58243 20.1935 8.47194 20.4625 8.4668C20.5976 8.46655 20.7314 8.49293 20.8562 8.54444C20.9811 8.59594 21.0946 8.67155 21.1902 8.76695C21.2858 8.86235 21.3616 8.97566 21.4134 9.1004C21.4652 9.22514 21.4919 9.35886 21.4919 9.49392ZM18.6929 10.2874C18.6857 10.555 18.5743 10.8092 18.3825 10.996C18.1906 11.1827 17.9335 11.2872 17.6658 11.2872C17.3981 11.2872 17.141 11.1827 16.9491 10.996C16.7573 10.8092 16.6459 10.555 16.6387 10.2874C16.6384 10.1524 16.6648 10.0186 16.7163 9.89373C16.7678 9.76887 16.8434 9.6554 16.9388 9.55979C17.0342 9.46419 17.1475 9.38832 17.2723 9.33655C17.397 9.28477 17.5307 9.2581 17.6658 9.25805C17.8009 9.2581 17.9346 9.28477 18.0593 9.33655C18.1841 9.38832 18.2974 9.46419 18.3928 9.55979C18.4882 9.6554 18.5638 9.76887 18.6153 9.89373C18.6668 10.0186 18.6932 10.1524 18.6929 10.2874Z" fill="#62D384"/>
</g>
<defs>
<clipPath id="clip0_506_6458">
<rect width="24" height="24" fill="white"/>
</clipPath>
</defs>
</svg>
