<svg width="64" height="64" viewBox="0 0 64 64" fill="none" xmlns="http://www.w3.org/2000/svg">
<path d="M35.9994 5.73071C34.6825 5.46604 33.3426 5.33294 31.9994 5.33338C20.9167 5.33338 11.9327 14.288 11.9327 25.3334C11.9327 28.192 11.7674 30.88 10.0927 33.3414C8.81803 35.2 7.09536 37.1014 6.74603 39.3867C6.17803 43.104 8.71403 45.6827 11.818 46.968C23.7194 51.9014 40.2794 51.9014 52.1807 46.968C55.2847 45.6827 57.8207 43.1014 57.2527 39.3867C56.986 37.64 55.9194 36.1174 54.858 34.6667" stroke="#124163" stroke-width="3" stroke-linecap="round" stroke-linejoin="round"/>
<path d="M42.708 10.6667H52.5C54.5614 10.6667 55.5934 10.6667 55.8654 11.3067C56.1374 11.9467 55.4387 12.7147 54.0387 14.2507L44.924 23.0827C43.5214 24.6187 42.4334 25.3867 42.708 26.0267C42.9827 26.6667 44.3987 26.6667 46.46 26.6667H55.9987M21.332 50.6667C22.5534 55.2667 26.868 58.6667 31.9987 58.6667C37.132 58.6667 41.4414 55.2667 42.6654 50.6667" stroke="#124163" stroke-width="3" stroke-linecap="round" stroke-linejoin="round"/>
</svg>
