<svg width="21" height="20" viewBox="0 0 21 20" fill="none" xmlns="http://www.w3.org/2000/svg">
<path d="M13.6589 0.750743L20.0875 6.96503C20.1497 7.025 20.1992 7.09689 20.233 7.17642C20.2668 7.25595 20.2842 7.34147 20.2842 7.42789C20.2842 7.5143 20.2668 7.59982 20.233 7.67935C20.1992 7.75888 20.1497 7.83077 20.0875 7.89074L13.6589 14.105C13.6001 14.1629 13.5305 14.2086 13.454 14.2395C13.3775 14.2704 13.2957 14.2859 13.2132 14.285C13.0427 14.285 12.8792 14.2173 12.7586 14.0967C12.638 13.9762 12.5703 13.8127 12.5703 13.6422V10.4365C6.82746 10.6679 4.41031 13.8822 4.30746 14.0193C4.22562 14.127 4.11267 14.207 3.98389 14.2484C3.85511 14.2898 3.71672 14.2906 3.58746 14.2507C3.45852 14.2092 3.346 14.128 3.26595 14.0187C3.18591 13.9094 3.14244 13.7776 3.14174 13.6422C3.14174 6.76789 8.79031 4.65931 12.5703 4.44503V1.2136C12.5706 1.08717 12.6081 0.96363 12.6783 0.858434C12.7484 0.753238 12.848 0.671057 12.9646 0.622171C13.08 0.572384 13.2077 0.558025 13.3313 0.580917C13.4549 0.603809 13.5689 0.662919 13.6589 0.750743ZM13.856 9.78503V12.1079L18.716 7.42789L13.856 2.73074V5.07074C13.8538 5.24055 13.7854 5.40277 13.6653 5.52286C13.5452 5.64294 13.383 5.71138 13.2132 5.7136C12.3817 5.7136 5.62745 5.90217 4.5646 11.9536C7.02976 10.0335 10.0902 9.03863 13.2132 9.14217C13.383 9.14439 13.5452 9.21283 13.6653 9.33291C13.7854 9.453 13.8538 9.61522 13.856 9.78503ZM17.4757 14.4762C17.5957 14.356 17.7577 14.2875 17.9275 14.285C18.0973 14.2872 18.2595 14.3557 18.3796 14.4758C18.4996 14.5959 18.5681 14.7581 18.5703 14.9279V15.3565C18.5703 16.4363 18.1414 17.4719 17.3778 18.2354C16.6143 18.9989 15.5787 19.4279 14.4989 19.4279H4.64174C3.56193 19.4279 2.52635 18.9989 1.76281 18.2354C0.999265 17.4719 0.570313 16.4363 0.570312 15.3565V5.49931C0.570312 4.4195 0.999265 3.38392 1.76281 2.62038C2.52635 1.85684 3.56193 1.42789 4.64174 1.42789H8.49888C8.66938 1.42789 8.83289 1.49561 8.95345 1.61617C9.07401 1.73673 9.14174 1.90025 9.14174 2.07074C9.14174 2.24124 9.07401 2.40475 8.95345 2.52531C8.83289 2.64587 8.66938 2.7136 8.49888 2.7136H4.64174C3.90362 2.71586 3.19637 3.01008 2.67444 3.53201C2.15251 4.05395 1.85829 4.76119 1.85603 5.49931V15.3565C1.85829 16.0946 2.15251 16.8018 2.67444 17.3238C3.19637 17.8457 3.90362 18.1399 4.64174 18.1422H14.4989C15.237 18.1399 15.9442 17.8457 16.4662 17.3238C16.9881 16.8018 17.2823 16.0946 17.2846 15.3565V14.9279C17.287 14.7582 17.3556 14.5961 17.4757 14.4762Z" fill="black"/>
</svg>
