<svg width="18" height="18" viewBox="0 0 18 18" fill="none" xmlns="http://www.w3.org/2000/svg">
<path d="M9.00033 0.666016C13.6028 0.666016 17.3337 4.39685 17.3337 8.99935C17.3337 13.6018 13.6028 17.3327 9.00033 17.3327C4.39783 17.3327 0.666992 13.6018 0.666992 8.99935C0.666992 4.39685 4.39783 0.666016 9.00033 0.666016ZM9.00033 1.70768C4.97324 1.70768 1.70866 4.97227 1.70866 8.99935C1.70866 13.0264 4.97324 16.291 9.00033 16.291C13.0274 16.291 16.292 13.0264 16.292 8.99935C16.292 4.97227 13.0274 1.70768 9.00033 1.70768ZM12.5978 6.33935C12.6462 6.38771 12.6846 6.44514 12.7108 6.50834C12.7369 6.57154 12.7504 6.63927 12.7504 6.70768C12.7504 6.77609 12.7369 6.84383 12.7108 6.90703C12.6846 6.97023 12.6462 7.02765 12.5978 7.07602L8.01449 11.6593C7.96613 11.7077 7.9087 11.7461 7.8455 11.7723C7.78231 11.7985 7.71457 11.8119 7.64616 11.8119C7.57775 11.8119 7.51001 11.7985 7.44681 11.7723C7.38361 11.7461 7.32619 11.7077 7.27782 11.6593L5.40283 9.78435C5.30514 9.68666 5.25026 9.55417 5.25026 9.41602C5.25026 9.27786 5.30514 9.14537 5.40283 9.04768C5.50051 8.94999 5.63301 8.89511 5.77116 8.89511C5.90931 8.89511 6.0418 8.94999 6.13949 9.04768L7.64616 10.5543L11.8612 6.33935C11.9095 6.29097 11.9669 6.25259 12.0301 6.22641C12.0933 6.20023 12.1611 6.18675 12.2295 6.18675C12.2979 6.18675 12.3656 6.20023 12.4288 6.22641C12.492 6.25259 12.5495 6.29097 12.5978 6.33935Z" fill="#15B79E"/>
</svg>
