<svg width="24" height="24" viewBox="0 0 24 24" fill="none" xmlns="http://www.w3.org/2000/svg">
<circle cx="12" cy="12" r="12" fill="#124163"/>
<path d="M5 11H7.5V18H5V11ZM15.5 18H8.5V10.5985L10.021 8.317L10.4435 5.3585C10.4786 5.12056 10.5978 4.90308 10.7795 4.74555C10.9613 4.58803 11.1935 4.5009 11.434 4.5H11.5C11.8977 4.5004 12.279 4.65856 12.5602 4.93978C12.8414 5.221 12.9996 5.6023 13 6V9H17C17.5302 9.00066 18.0386 9.21159 18.4135 9.58652C18.7884 9.96145 18.9993 10.4698 19 11V14.5C18.9987 15.4279 18.6295 16.3173 17.9734 16.9734C17.3173 17.6295 16.4279 17.9987 15.5 18Z" fill="white"/>
</svg>
