<svg width="18" height="18" viewBox="0 0 18 18" fill="none" xmlns="http://www.w3.org/2000/svg">
<path d="M9.00033 1.74128C12.9862 1.74128 16.2584 4.96961 16.2584 8.99935C16.2584 13.0078 13.0121 16.2574 9.00033 16.2574C4.99347 16.2574 1.74226 13.0127 1.74226 8.99935C1.74226 4.99387 4.9883 1.74128 9.00033 1.74128ZM9.00033 0.666016C4.39828 0.666016 0.666992 4.39864 0.666992 8.99935C0.666992 13.6027 4.39828 17.3327 9.00033 17.3327C13.6024 17.3327 17.3337 13.6027 17.3337 8.99935C17.3337 4.39864 13.6024 0.666016 9.00033 0.666016ZM8.61424 4.69827H9.38638C9.61565 4.69827 9.79881 4.8892 9.78927 5.1183L9.55406 10.7635C9.54505 10.9795 9.36736 11.1499 9.15117 11.1499H8.84945C8.63329 11.1499 8.45557 10.9794 8.44656 10.7635L8.21135 5.1183C8.20184 4.8892 8.38497 4.69827 8.61424 4.69827ZM9.00033 11.8219C8.4807 11.8219 8.05947 12.2432 8.05947 12.7628C8.05947 13.2824 8.4807 13.7037 9.00033 13.7037C9.51995 13.7037 9.94119 13.2824 9.94119 12.7628C9.94119 12.2432 9.51995 11.8219 9.00033 11.8219Z" fill="#F79009"/>
</svg>
